<svg xmlns="http://www.w3.org/2000/svg" width="1200" height="630" viewBox="0 0 1200 630">
  <defs>
    <linearGradient id="bg" x1="0%" y1="0%" x2="100%" y2="100%">
      <stop offset="0%" style="stop-color:#0a0a1a"/>
      <stop offset="100%" style="stop-color:#1a1a3a"/>
    </linearGradient>
    <linearGradient id="accent" x1="0%" y1="0%" x2="100%" y2="0%">
      <stop offset="0%" style="stop-color:#00fff9"/>
      <stop offset="100%" style="stop-color:#ff00ff"/>
    </linearGradient>
    <linearGradient id="accent2" x1="0%" y1="0%" x2="100%" y2="0%">
      <stop offset="0%" style="stop-color:#00ff88"/>
      <stop offset="100%" style="stop-color:#00fff9"/>
    </linearGradient>
  </defs>
  <rect width="1200" height="630" fill="url(#bg)"/>
  <!-- Grid lines -->
  <g stroke="rgba(0,255,249,0.05)" stroke-width="1">
    <line x1="0" y1="0" x2="0" y2="630"/><line x1="60" y1="0" x2="60" y2="630"/>
    <line x1="120" y1="0" x2="120" y2="630"/><line x1="180" y1="0" x2="180" y2="630"/>
    <line x1="240" y1="0" x2="240" y2="630"/><line x1="300" y1="0" x2="300" y2="630"/>
    <line x1="360" y1="0" x2="360" y2="630"/><line x1="420" y1="0" x2="420" y2="630"/>
    <line x1="480" y1="0" x2="480" y2="630"/><line x1="540" y1="0" x2="540" y2="630"/>
    <line x1="600" y1="0" x2="600" y2="630"/><line x1="660" y1="0" x2="660" y2="630"/>
    <line x1="720" y1="0" x2="720" y2="630"/><line x1="780" y1="0" x2="780" y2="630"/>
    <line x1="840" y1="0" x2="840" y2="630"/><line x1="900" y1="0" x2="900" y2="630"/>
    <line x1="960" y1="0" x2="960" y2="630"/><line x1="1020" y1="0" x2="1020" y2="630"/>
    <line x1="1080" y1="0" x2="1080" y2="630"/><line x1="1140" y1="0" x2="1140" y2="630"/>
    <line x1="1200" y1="0" x2="1200" y2="630"/>
    <line x1="0" y1="60" x2="1200" y2="60"/><line x1="0" y1="120" x2="1200" y2="120"/>
    <line x1="0" y1="180" x2="1200" y2="180"/><line x1="0" y1="240" x2="1200" y2="240"/>
    <line x1="0" y1="300" x2="1200" y2="300"/><line x1="0" y1="360" x2="1200" y2="360"/>
    <line x1="0" y1="420" x2="1200" y2="420"/><line x1="0" y1="480" x2="1200" y2="480"/>
    <line x1="0" y1="540" x2="1200" y2="540"/><line x1="0" y1="600" x2="1200" y2="600"/>
  </g>
  <!-- Accent bar top -->
  <rect x="0" y="0" width="1200" height="4" fill="url(#accent)"/>
  <!-- Logo -->
  <text x="100" y="200" font-family="system-ui, -apple-system, sans-serif" font-size="72" font-weight="900" fill="url(#accent)">AI Club In</text>
  <!-- Tagline -->
  <text x="100" y="280" font-family="system-ui, -apple-system, sans-serif" font-size="36" fill="#b0b0c0">API 中转站比价 · 风险评级 · 真伪检测</text>
  <!-- Feature badges -->
  <rect x="100" y="340" width="200" height="50" rx="25" fill="rgba(0,255,249,0.15)" stroke="#00fff9" stroke-width="1"/>
  <text x="200" y="372" font-family="system-ui, sans-serif" font-size="20" fill="#00fff9" text-anchor="middle">实时比价</text>
  <rect x="330" y="340" width="200" height="50" rx="25" fill="rgba(0,255,136,0.15)" stroke="#00ff88" stroke-width="1"/>
  <text x="430" y="372" font-family="system-ui, sans-serif" font-size="20" fill="#00ff88" text-anchor="middle">六维检测</text>
  <rect x="560" y="340" width="200" height="50" rx="25" fill="rgba(255,0,255,0.15)" stroke="#ff00ff" stroke-width="1"/>
  <text x="660" y="372" font-family="system-ui, sans-serif" font-size="20" fill="#ff00ff" text-anchor="middle">用户评价</text>
  <!-- URL -->
  <text x="100" y="500" font-family="monospace" font-size="28" fill="#6a6a7a">www.aiclubin.com</text>
  <!-- Accent bar bottom -->
  <rect x="0" y="626" width="1200" height="4" fill="url(#accent)"/>
</svg>
